# xmcd
#
# Track frame offsets:
#	150
#	17023
#	34765
#	58016
#	73685
#	89772
#	107883
#	127616
#	141711
#	156274
#	175187
#	193137
#
# Disc length: 2821 seconds
#
# Revision: 0
# Processed by: cddbd v1.5.1PL2 Copyright (c) Steve Scherf et al.
# Submitted via: EasyCDDAExtractor 8.0.1.1
#
DISCID=ae0b030c
DTITLE=Rudy Joseph - Bluesy, Jazzy,Soul
DYEAR=2001
DGENRE=Soul
TTITLE0=Quand le mal se sert
TTITLE1=L'obscurité
TTITLE2=Je n'ai pas su
TTITLE3=Qu'est - t - il arrivé ?
TTITLE4=Tout devient querelle
TTITLE5=Autrefois
TTITLE6=Bluesy, Jazzy, Soul
TTITLE7=Seul
TTITLE8=L'argent
TTITLE9=Femme mariée
TTITLE10=Le chat et la souris
TTITLE11=J'entrevois les Cieux
EXTD=
EXTT0=
EXTT1=
EXTT2=
EXTT3=
EXTT4=
EXTT5=
EXTT6=
EXTT7=
EXTT8=
EXTT9=
EXTT10=
EXTT11=
PLAYORDER=
